#!OML:ASF H:\Male1\Project 1\Capture day 1\Session 1\Male1.ASF
:FULLY-SPECIFIED
:DEGREES
490
root 8.31735 15.3831 4.21606 178.678 7.04586 -178.118
lowerback 19.4785 0.723755 -2.69142
upperback 7.66712 1.7701 -2.00045
thorax -2.61427 1.44572 -0.995564
lowerneck -4.02073 7.3087 11.9839
upperneck -3.73951 9.31455 -10.7883
head 0.628913 4.61117 -4.93003
rclavicle 2.3059e-014 1.51076e-014
rhumerus -9.1922 -12.3508 -65.8592
rradius 137.566
rwrist -26.8503
rhand -43.4834 39.9132
rfingers 7.12502
rthumb -16.3238 10.5802
lclavicle 2.3059e-014 1.51076e-014
lhumerus -2.41349 24.0212 64.3172
lradius 132.987
lwrist 27.5054
lhand -46.7274 -7.07144
lfingers 7.12502
lthumb -19.4452 21.9762
rfemur -8.07954 8.73586 20.7407
rtibia 26.6398
rfoot -21.1133 -27.6561
rtoes -28.6312
lfemur -8.94331 -10.1763 -14.0703
ltibia 29.2137
lfoot -17.9256 22.4761
ltoes -18.7379
491
root 8.29365 15.363 4.27777 179.054 6.95426 -177.969
lowerback 20.1617 0.695738 -2.71372
upperback 7.86733 1.78659 -1.92052
thorax -2.75021 1.48306 -0.921682
lowerneck -4.01274 7.1868 11.9768
upperneck -4.37347 9.14782 -10.8777
head 0.427036 4.54168 -4.9804
rclavicle 1.43125e-014 3.4191e-014
rhumerus -7.77216 -11.2005 -68.5101
rradius 137.74
rwrist -26.3562
rhand -44.3122 40.0061
rfingers 7.12502
rthumb -17.1217 10.7405
lclavicle 1.43125e-014 3.4191e-014
lhumerus -1.09635 23.4686 67.5806
lradius 133.833
lwrist 26.07
lhand -47.0673 -7.52992
lfingers 7.12502
lthumb -19.7719 21.4845
rfemur -9.37232 8.07494 20.6614
rtibia 27.7081
rfoot -20.9627 -27.0866
rtoes -29.0726
lfemur -10.4993 -9.44867 -13.7684
ltibia 30.6652
lfoot -17.906 21.8643
ltoes -19.4075
492
root 8.26903 15.3361 4.34504 179.534 6.7793 -177.805
lowerback 20.8621 0.641517 -2.72611
upperback 8.05677 1.77069 -1.82319
thorax -2.90408 1.50421 -0.82844
lowerneck -4.11616 7.0729 11.9135
upperneck -4.99292 8.98925 -10.8958
head 0.241619 4.4768 -4.99565
rclavicle 5.56597e-015 -4.53229e-014
rhumerus -6.35234 -9.89423 -70.6065
rradius 137.634
rwrist -25.5037
rhand -44.5565 39.8757
rfingers 7.12502
rthumb -17.3569 10.6307
lclavicle 5.56597e-015 -4.53229e-014
lhumerus 0.201381 22.5118 70.4912
lradius 134.604
lwrist 24.8287
lhand -47.381 -8.18428
lfingers 7.12502
lthumb -20.0736 20.7987
rfemur -10.9523 7.35025 20.6135
rtibia 29.0759
rfoot -20.8565 -26.5687
rtoes -29.48
lfemur -12.3464 -8.76267 -13.453
ltibia 32.3687
lfoot -17.9452 21.2396
ltoes -20.0978
493
root 8.24448 15.3003 4.41704 180.11 6.53735 -177.581
lowerback 21.5837 0.560396 -2.72638
upperback 8.22826 1.72 -1.678
thorax -3.08641 1.50627 -0.683337
lowerneck -4.28036 6.97293 11.8278
upperneck -5.63739 8.85016 -10.9261
head 0.060493 4.42415 -5.00877
rclavicle -1.39149e-014 2.3059e-014
rhumerus -4.89405 -8.49319 -72.1765
rradius 137.294
rwrist -24.4773
rhand -44.2509 39.3792
rfingers 7.12502
rthumb -17.0627 10.1085
lclavicle -1.39149e-014 2.3059e-014
lhumerus 1.41188 21.2662 72.9872
lradius 135.335
lwrist 23.8302
lhand -47.5191 -8.70987
lfingers 7.12502
lthumb -20.2062 20.2592
rfemur -12.8099 6.65874 20.6711
rtibia 30.7436
rfoot -20.776 -26.1884
rtoes -29.8392
lfemur -14.4721 -8.13038 -13.0818
ltibia 34.3424
lfoot -18.088 20.6073
ltoes -20.7145
494
root 8.22104 15.2527 4.49241 180.767 6.24259 -177.255
lowerback 22.325 0.45446 -2.67094
upperback 8.38012 1.64664 -1.47587
thorax -3.29772 1.49539 -0.503028
lowerneck -4.43265 6.88094 11.8108
upperneck -6.37327 8.72308 -11.0924
head -0.137465 4.38261 -5.07653
rclavicle -2.38542e-014 -4.21423e-014
rhumerus -3.38018 -7.03264 -73.2769
rradius 136.806
rwrist -23.4479
rhand -43.5984 38.5173
rfingers 7.12502
rthumb -16.4346 9.19348
lclavicle -2.38542e-014 -4.21423e-014
lhumerus 2.53924 19.8053 75.0646
lradius 136.053
lwrist 23.0841
lhand -47.4298 -9.01854
lfingers 7.12502
lthumb -20.1204 19.9596
rfemur -14.9119 6.11338 20.8959
rtibia 32.6837
rfoot -20.8316 -25.9556
rtoes -29.747
lfemur -16.8534 -7.5738 -12.6109
ltibia 36.6007
lfoot -18.3584 19.9872
ltoes -21.2127
